<svg xmlns="http://www.w3.org/2000/svg" width="980.197" height="605.229" viewBox="0 0 980.197 605.229">
  <defs>
    <linearGradient id="linearGradient-3" x1="476.982" x2="453.609" y1="401.51" y2="869.331" gradientUnits="userSpaceOnUse">
      <stop offset=".01" stop-color="rgb(0,0,0)"/>
      <stop offset=".08" stop-color="rgb(0,0,0)" stop-opacity=".69"/>
      <stop offset=".21" stop-color="rgb(0,0,0)" stop-opacity=".32"/>
      <stop offset="1" stop-color="rgb(0,0,0)" stop-opacity="0"/>
    </linearGradient>
    <linearGradient id="linearGradient-6" x1="483.745" x2="465.16" y1="417.165" y2="682.602" gradientUnits="userSpaceOnUse">
      <stop offset=".01" stop-color="rgb(0,0,0)"/>
      <stop offset=".08" stop-color="rgb(0,0,0)" stop-opacity=".69"/>
      <stop offset=".21" stop-color="rgb(0,0,0)" stop-opacity=".32"/>
      <stop offset="1" stop-color="rgb(0,0,0)" stop-opacity="0"/>
    </linearGradient>
    <linearGradient id="linearGradient-12" x1="849.614" x2="399.806" y1="221.611" y2="484.306" gradientUnits="userSpaceOnUse">
      <stop offset=".01" stop-color="rgb(0,0,0)"/>
      <stop offset=".08" stop-color="rgb(0,0,0)" stop-opacity=".69"/>
      <stop offset=".21" stop-color="rgb(0,0,0)" stop-opacity=".32"/>
      <stop offset="1" stop-color="rgb(0,0,0)" stop-opacity="0"/>
    </linearGradient>
    <linearGradient id="linearGradient-14" x1="178.464" x2="537.98" y1="635.998" y2="335.38" gradientUnits="userSpaceOnUse">
      <stop offset=".01" stop-color="rgb(0,0,0)"/>
      <stop offset=".08" stop-color="rgb(0,0,0)" stop-opacity=".69"/>
      <stop offset=".21" stop-color="rgb(0,0,0)" stop-opacity=".32"/>
      <stop offset="1" stop-color="rgb(0,0,0)" stop-opacity="0"/>
    </linearGradient>
    <linearGradient id="linearGradient-16" x1="189.062" x2="578.372" y1="365.679" y2="125.541" gradientUnits="userSpaceOnUse">
      <stop offset=".01" stop-color="rgb(0,0,0)"/>
      <stop offset=".08" stop-color="rgb(0,0,0)" stop-opacity=".69"/>
      <stop offset=".21" stop-color="rgb(0,0,0)" stop-opacity=".32"/>
      <stop offset="1" stop-color="rgb(0,0,0)" stop-opacity="0"/>
    </linearGradient>
    <linearGradient id="linearGradient-26" x1="268.008" x2="268.008" y1="393.575" y2="542.477" gradientUnits="userSpaceOnUse">
      <stop offset="0" stop-color="rgb(38,42,148)"/>
      <stop offset=".73" stop-color="rgb(145,148,217)"/>
      <stop offset="1" stop-color="rgb(145,148,217)"/>
    </linearGradient>
    <linearGradient id="linearGradient-29" x1="290.667" x2="290.667" y1="390.665" y2="551.014" gradientUnits="userSpaceOnUse">
      <stop offset="0" stop-color="rgb(38,42,148)"/>
      <stop offset=".69" stop-color="rgb(145,148,217)"/>
      <stop offset="1" stop-color="rgb(145,148,217)"/>
    </linearGradient>
    <linearGradient id="linearGradient-36" x1="281.669" x2="289.316" y1="15.211" y2="196.673" gradientUnits="userSpaceOnUse">
      <stop offset=".01" stop-color="rgb(0,0,0)"/>
      <stop offset=".08" stop-color="rgb(0,0,0)" stop-opacity=".69"/>
      <stop offset=".21" stop-color="rgb(0,0,0)" stop-opacity=".32"/>
      <stop offset="1" stop-color="rgb(0,0,0)" stop-opacity="0"/>
    </linearGradient>
    <linearGradient id="linearGradient-38" x1="257.797" x2="264.264" y1="52.196" y2="205.162" gradientUnits="userSpaceOnUse">
      <stop offset=".01" stop-color="rgb(0,0,0)"/>
      <stop offset=".08" stop-color="rgb(0,0,0)" stop-opacity=".69"/>
      <stop offset=".21" stop-color="rgb(0,0,0)" stop-opacity=".32"/>
      <stop offset="1" stop-color="rgb(0,0,0)" stop-opacity="0"/>
    </linearGradient>
    <linearGradient id="linearGradient-40" x1="281.669" x2="289.316" y1="66.673" y2="248.135" gradientUnits="userSpaceOnUse">
      <stop offset=".01" stop-color="rgb(0,0,0)"/>
      <stop offset=".08" stop-color="rgb(0,0,0)" stop-opacity=".69"/>
      <stop offset=".21" stop-color="rgb(0,0,0)" stop-opacity=".32"/>
      <stop offset="1" stop-color="rgb(0,0,0)" stop-opacity="0"/>
    </linearGradient>
    <linearGradient id="linearGradient-42" x1="561.295" x2="567.762" y1="299.849" y2="452.815" gradientUnits="userSpaceOnUse">
      <stop offset=".01" stop-color="rgb(0,0,0)"/>
      <stop offset=".08" stop-color="rgb(0,0,0)" stop-opacity=".69"/>
      <stop offset=".21" stop-color="rgb(0,0,0)" stop-opacity=".32"/>
      <stop offset="1" stop-color="rgb(0,0,0)" stop-opacity="0"/>
    </linearGradient>
    <linearGradient id="linearGradient-44" x1="585.167" x2="592.815" y1="314.325" y2="495.788" gradientUnits="userSpaceOnUse">
      <stop offset=".01" stop-color="rgb(0,0,0)"/>
      <stop offset=".08" stop-color="rgb(0,0,0)" stop-opacity=".69"/>
      <stop offset=".21" stop-color="rgb(0,0,0)" stop-opacity=".32"/>
      <stop offset="1" stop-color="rgb(0,0,0)" stop-opacity="0"/>
    </linearGradient>
    <linearGradient id="linearGradient-46" x1="257.797" x2="264.264" y1="103.658" y2="256.624" gradientUnits="userSpaceOnUse">
      <stop offset=".01" stop-color="rgb(0,0,0)"/>
      <stop offset=".08" stop-color="rgb(0,0,0)" stop-opacity=".69"/>
      <stop offset=".21" stop-color="rgb(0,0,0)" stop-opacity=".32"/>
      <stop offset="1" stop-color="rgb(0,0,0)" stop-opacity="0"/>
    </linearGradient>
  </defs>
  <g>
    <g opacity=".18">
      <path fill="rgb(186,197,244)" fill-rule="evenodd" d="M.14170937 48.72745328c-4.4572891 15.86811498 97.68349886 289.47975539 102 373.5 3.26508672 63.55457244 63.92679482 160.67318557 105 175.96740548 24.96161641 9.37853107 186.43907757 9.37853107 235.5 0 23.35045753-4.4728379 267.34606645 7.7192525 312.66274642 0 31.56509857-5.43473852 236.93152368-17.45697523 224.33725358-83.46740548-6.32300534-33.14080928-45.22568587-125.75443956-50-220.5-4.73524633-93.97026587 24.73477215-190.12665733 0-210.96204549C918.91396133 74.24381624 718.19727136 4.1967636 514.85023748.37517245 303.54282104-3.59602171 6.89509075 24.732975.14170938 48.72745328z"/>
    </g>
    <path fill="url(#linearGradient-3)" fill-rule="evenodd" d="M251.89672995 556.66479936l-2.90462446-.19238012c-9.50810661-.79356802-15.88466499 4.35260032-23.89507462 9.33043604-9.53079899 5.93973635-20.4231407 9.21019846-29.70432352 15.438505-1.3842351.9378531-2.92731684 2.66927423-2.08769883 4.1602202.56730946.98594813 1.86077504 1.13023322 2.97270159 1.15428074 23.4866118.48095031 46.90514647.57714037 70.34637352.57714037h425.4820979c15.51244773-.06695088 31.00503604-1.18342352 46.38322176-3.34260466 2.28478819-.07314147 4.16168913-1.93554715 4.38058122-4.3467501.2188921-2.41120297-1.2885439-4.61863343-3.51827084-5.15201855 0 0-19.7877541-7.21425467-39.75704723-13.49065624-33.83433642-10.77328698-71.82137812-6.05997392-106.6541792-5.29045342-36.67088375.84166304-73.40984462 1.80356366-110.05803599-.69737796-26.39123626-1.80356366-47.10937788 0-73.59138365.9138056-19.31121415.60118788-38.4181969 2.40475155-57.79748818 2.09213385l-68.82598415-.88975808c-10.25695511.07214255-20.58198735.38476025-30.77086532-.26452267z"/>
    <path fill="rgb(186,197,244)" fill-rule="evenodd" d="M387.34753754 559.40621614h172.8932322l-30.58932629-116.53426047h-116.5026715l-25.80123441 116.53426047z"/>
    <path fill="url(#linearGradient-6)" fill-rule="evenodd" d="M387.34753754 559.40621614h172.8932322l-30.58932629-116.53426047h-116.5026715l-25.80123441 116.53426047z"/>
    <path fill="rgb(117,71,225)" fill-rule="evenodd" d="M732.77092389 131.50472403V432.0986687c-.09998111 18.10436156-14.0042042 32.70985132-31.08855862 32.65652615H253.68942785c-17.11443064.00001941-30.99544208-14.68841281-31.02048148-32.82485875V131.50472403c-1.2e-7-8.71844892 3.26821967-17.0798134 9.08568834-23.2446882 5.81746867-6.16487479 13.70764947-9.62826546 21.93479268-9.62826559h447.99293788c8.22714924-.0191544 16.12451398 3.42587964 21.95475398 9.57722953 5.83024 6.1513499 9.11576926 14.50512582 9.13380464 23.22358172v.07214254z"/>
    <path fill="rgb(38,42,148)" fill-rule="evenodd" d="M732.77092389 131.52877155v263.48862813H222.66894637V131.52877155c-.00000457-18.15912516 13.88467259-32.8837271 31.0204815-32.8970013h447.9929374c8.23918067-.00638013 16.14329738 3.45596022 21.97353355 9.62534521 5.83023617 6.169385 9.10900888 14.54045036 9.11502507 23.27165609z"/>
    <path fill="rgb(255,255,255)" fill-rule="evenodd" d="M725.10089994 137.70898305v248.50702593H230.40704745V137.70898305c.13726895-17.46519928 13.5632229-31.53173034 30.04470921-31.47819788H694.9881136c16.50800258-.09337697 29.97545286 13.98473125 30.11278634 31.47819788z"/>
    <g opacity=".18">
      <path fill="rgb(186,197,244)" fill-rule="evenodd" d="M725.10089994 137.70898305v248.50702593H230.40704745V137.70898305c.13726895-17.46519928 13.5632229-31.53173034 30.04470921-31.47819788H694.9881136c16.50800258-.09337697 29.97545286 13.98473125 30.11278634 31.47819788z"/>
    </g>
    <path fill="url(#linearGradient-12)" fill-rule="evenodd" d="M522.04716046 290.67522961h157.60324141c5.03346503 0 9.12 4.08653498 9.12 9.12v134.22124873c0 5.03346503-4.08653497 9.12-9.12 9.12H522.04716046c-5.03346503 0-9.12-4.08653497-9.12-9.12V299.79522961c0-5.03346502 4.08653497-9.12 9.12-9.12z"/>
    <path fill="url(#linearGradient-14)" fill-rule="evenodd" d="M383.21752464 98.63177024v102.73098653c0 7.88895922-6.03487602 14.28422425-13.47927286 14.28422425H222.66894637v-84.1663045c.03748279-18.1348562 13.90754646-32.82245613 31.02048148-32.84890628h129.52809679z"/>
    <path fill="url(#linearGradient-16)" fill-rule="evenodd" d="M339.33046452 464.75519484c4.15270527-20.3922932-15.58966407-38.35578734-14.84081558-59.20498334.3176933-9.16210343 4.53847571-17.57873388 8.75925812-25.61060408.24848248-.62990968.68753526-1.15439811 1.24808082-1.49094597.86231039-.38476025 1.81539029.19238013 2.6550083.6252354 7.8288706 4.25641026 17.79082478-1.77951615 21.55775962-10.1961466 3.76693484-8.41663045 3.0634711-18.20396929 2.26923786-27.46226278-8.49274817 7.25700828-19.9799416 9.19739525-30.18086348 5.0980733-4.9696309-2.04403882-9.66695326-5.5549761-14.99966223-5.53092858-5.33270896.02404751-10.23426272 3.8476025-14.11465946 7.95972765-13.3204262 14.11589164-20.80891113 33.4981892-24.2354603 53.14500942-3.42654915 19.64682022-2.6323159 42.39576995-2.26923785 62.3792554l64.15135418.28857018z"/>
    <path fill="none" d="M647.83335096 243.1092438l-68.64444513-39.65435317"/>
    <path fill="rgb(186,197,244)" fill-rule="evenodd" d="M369.73825178 223.29409097h236.00073696c4.2128751 0 8.25320179 1.77349919 11.23215433 4.93034797 2.97895255 3.15684879 4.65251066 7.43845457 4.65251066 11.90291294 0 9.29675328-7.11180676 16.8332609-15.88466499 16.8332609H369.73825178v-33.6665218z"/>
    <rect width="190.525" height="33.522" x="369.738" y="223.294" fill="rgb(255,255,255)" rx="0" ry="0"/>
    <ellipse cx="588.515" cy="238.155" fill="none" stroke="rgb(255,255,255)" stroke-dasharray="0 0 0 0" stroke-linecap="butt" stroke-linejoin="miter" stroke-width="1" rx="7.625" ry="8.08"/>
    <path fill="none" stroke="rgb(255,255,255)" stroke-dasharray="0 0 0 0" stroke-linecap="butt" stroke-linejoin="miter" stroke-width="1" d="M595.50472602 251.30944662l-3.13154825-6.1802115"/>
    <path fill="rgb(210,145,118)" fill-rule="evenodd" d="M317.18270305 558.22788787c-.13822277 1.64197793.38994631 3.2686355 1.45231222 4.4728379.56458855.41377163 1.20720742.69273327 1.88346742.81761553 1.7927131.37194738 3.62370614.49321836 5.44617086.36071273 3.40477537-.2480581 6.78759164-.76247321 10.12080083-1.539041l5.7184794-1.15428074c.73187914-.02853766 1.41731704-.38734728 1.88346742-.98594814.3683724-.79496462.24252532-1.74755315-.3176933-2.40475156-.97728036-1.19612323-2.25055861-2.07900869-3.67616533-2.54903665-3.43793287-1.48187322-6.98152786-2.67196131-10.59734078-3.5590323-.59864225-.09676303-1.16668569-.3441462-1.65654364-.72142547-.72615611-.67333043-.86231038-1.80356367-1.36154271-2.66927423-.99593319-1.565767-2.80884019-2.30541732-4.53847571-1.8516587-1.65654364.33666522-4.03924338 1.51499349-4.53847571 3.43879473-.2346774 2.77991942-.1737822 5.57898305.18153903 8.3444879z"/>
    <path fill="rgb(86,80,86)" fill-rule="evenodd" d="M335.69968395 552.43243662c-1.19135456-.3306952-2.45835544.04635408-3.31308727.98594814-.9530799 1.46689845.27230854 3.82355498-.839618 5.14616833-.69917858.62375639-1.61167263.91123875-2.51885403.79356802h-6.30848124c-1.69732085.0852439-3.39795535-.06022455-5.06040041-.43285528-.37185343-.16816147-.78178308-.21828567-1.18000369-.1442851-.57558133.17110314-.9967903.69344237-1.0665418 1.32261336-.05432145.61369743.0312863 1.23224315.24961617 1.80356367.40938865 1.2211272.99917102 2.3656129 1.74731315 3.3906997.20572461.30239737.46844788.55624406.77154087.74547298.35847606.15850412.74737037.22444303 1.13461893.19238012 3.74424246 0 7.48848492.1442851 11.34618928-.1683326 2.60962353-.19238013 5.19655469-.57714038 7.78348584-.81761554 3.75858572.00571934 7.48977205-.6776888 11.02849598-2.0199913.93049722-.3331877 1.6926049-1.05396595 2.1103912-1.9959438.19051714-.83673885.01550265-1.71991004-.47653994-2.40475156-.50258938-.70533689-1.13577778-1.29450847-1.86077505-1.73142112-2.04381315-1.39639872-4.28991564-2.4281045-6.64886691-3.05403447-2.2635764-.6971618-4.56807001-1.23539058-6.89848308-1.61118355z"/>
    <path fill="rgb(210,145,118)" fill-rule="evenodd" d="M247.83479418 550.82125308v.50499783c.22692379 5.33854845 6.80771357 5.48283355 10.50657128 5.29045342 3.39608414-.25990623 6.77055118-.77420483 10.09810845-1.539041l5.74117178-1.15428074c.72632879-.05108662 1.40379152-.40572144 1.88346742-.98594814.34384757-.798934.219972-1.73659924-.3176933-2.40475156-.98020064-1.20383392-2.26294034-2.08782318-3.6988577-2.54903665-3.09224937-1.25925937-6.243006-2.35082696-9.44002949-3.27046212-2.83654732-.88975807-.45384757-5.02593075-.13615427-7.21425467.11391504-.4407709.11391504-.90588998 0-1.34666087-.32358228-.47500537-.79966383-.80849638-1.33885033-.9378531-1.65230741-.60280698-3.38164931-.9352724-5.12847756-.98594815-.35360863-.04963463-.71276353.02648593-1.02115703.21642764-.27166624.22189476-.47664189.52265583-.59000184.86571056l-5.46886323 12.38447052c-.5417663.96202426-.91104887 2.02189066-1.08923418 3.12617703z"/>
    <path fill="url(#linearGradient-26)" fill-rule="evenodd" d="M250.24018631 393.57454875s-4.08462814 24.38418079 4.35693668 42.66029262c4.42335398 9.82887862 9.37071959 19.38315897 14.8181232 28.61654354 5.44740361 9.23338456-17.563901 20.12777053-17.563901 45.52194697 0 25.39417645-.45384757 26.45226713-.45384757 26.45226713l10.55195603 5.65116616 26.32315912-77.72157033s1.5884665-11.01376213 0-14.74112704c-1.5884665-3.72736492-15.09043174-46.21932493-15.09043174-46.21932493l-22.94199472-10.22019412z"/>
    <path fill="rgb(210,145,118)" fill-rule="evenodd" d="M335.17775924 282.95597711c.28126773 2.54546624.3798844 5.10987863.29500092 7.67115747-.47994668 1.9682961-1.62703098 3.68038843-3.22231775 4.80950311-1.59339356 1.13540832-3.37026785 1.9505534-5.24193945 2.40475156-.82912091.07072827-1.58329114.53594041-2.05078095 1.2650303-.46748981.7290899-.5978973 1.64345151-.35461118 2.48638213v6.56497175c.0694317.6856281-.09125307 1.37526408-.45384757 1.94784876-.29505592.30758407-.66387488.52379563-1.06654179.6252354-3.09709415.76646738-6.26826308-.92392669-7.53386968-4.0159351-.68077136-1.44285093-1.45231223-2.86165435-2.26923785-4.23236273-.80189884-1.77395023-1.2866234-3.69002537-1.42961985-5.65116616-.60653802-6.29364913.51225666-12.63914897 3.22231775-18.27611184 1.67525182-3.60372068 4.13268492-6.73533603 7.17079162-9.13805592 2.40539213-1.82761118 7.14809925-4.59307547 9.62156851-1.41880341 1.22538844 1.58713602 1.20269606 3.91974503 2.26923786 5.5790236.839618 1.20237579 2.26923785 2.01999132 2.51885402 3.48688977.24961616 1.46689845-.68077136 2.40475155-1.11192655 3.72736491-.23411647.69490818-.35683754 1.4264377-.36307806 2.1642764z"/>
    <path fill="url(#linearGradient-29)" fill-rule="evenodd" d="M303.31765975 404.10736057l25.52892587 60.64783427-1.06654179 86.25843836-11.70926733-.91380559s-20.03737027-49.05693177-7.14809925-79.35680139c0 0-30.95240435-28.03940316-42.38936314-44.0069535-14.04658232-19.64682022-10.86964932-36.07127336-10.86964932-36.07127336l47.65399496 13.4425612z"/>
    <path fill="rgb(255,255,255)" fill-rule="evenodd" d="M315.14038898 299.26019267c3.14431946.74693639 6.19202762 1.89348356 9.07695142 3.41474721 9.80310753 4.80950312 10.23426273 12.98565841 13.61542713 22.82109228 2.1753883 6.25814088 4.65985288 12.39071093 7.44310017 18.3723019l4.67462998-29.62653919 13.1161948 5.60307113s1.29346558 43.76647834-8.32810293 49.63407214c-6.19501934 3.79950746-14.86350795-.6252354-20.4231407-3.67926988-2.04231406-1.10618572-5.42347847-4.44879038-7.62463919-4.80950311-4.19809003-.6011879-4.53847571 4.66521802-8.16925628 7.76734753-2.42847655 1.48578244-4.75630134 3.14908958-6.96656021 4.97783572-2.06709404 2.56333949-3.61220672 5.55156397-4.53847572 8.77734318-1.04842658 3.97091878-1.35673542 8.120267-.90769514 12.21613791.18153903 2.81355933.36307806 6.0118789-1.52038936 7.95972766-1.07531865.9861247-2.40161055 1.61357784-3.8123196 1.80356367-4.66225706.7136533-9.40074683.6568678-14.04658232-.16833261-9.21537614-.7696772-18.33655244-2.50147929-27.23085427-5.17021585-3.2149199-1.0699816-6.3543174-2.37983824-9.39464472-3.91974504-.66517145-.29620203-1.27294741-.72014747-1.7926979-1.2504708-.56179471-.68232089-.9382602-1.51346077-1.08923418-2.40475157-1.20269606-5.96378386 2.8592397-11.49471244 4.90155377-17.19397363 1.36154271-3.8476025 1.81539029-8.00782269 3.0634711-11.9035202 1.36154272-4.35260033 3.90308912-7.21425468 6.17232697-11.06185717 1.83808267-3.02998696 2.8592397-6.61306679 4.69732236-9.7392438 4.90969344-8.02071453 10.37868745-15.64099076 16.36120494-22.79704477 3.5114957-4.6105597 7.4159196-8.86889358 11.66388258-12.72113574 4.8627983-4.51900145 11.0748426-7.07385788 17.54120862-7.21425467 1.17832052.00727295 2.35431659.11179496 3.51731868.3126177z"/>
    <path fill="rgb(104,89,125)" fill-rule="evenodd" d="M304.8607415 248.32755469c-7.691523.45233522-14.34101925 5.83978146-16.76966776 13.5868463-1.02115704 2.7895118-.61269422 6.30044908-1.02115704 9.30638852-.18285574 3.39741487-1.49296323 6.61701043-3.6988577 9.08996089-2.72308543 2.64522671-6.80771357 3.05403448-10.27964748 4.0159351-5.55963275 1.49094596-11.09657312 5.00188324-13.13888719 10.70114443-2.04231407 5.69926119-.3176933 11.51875996-1.22538844 17.21802115-.74901873 4.74451334-3.18530805 9.00444861-6.80771357 11.9035202-2.49616164 1.94784877-5.46886323 3.17427206-8.05579438 5.02593076-4.50278392 3.58991039-7.47493967 8.92877459-8.26228621 14.84149144-.78734654 5.91271684.6746488 11.91466683 4.06419618 16.68480148l.3176933.43285528c.95670203 1.0224125 1.84392132 2.11529688 2.65500829 3.27046212.74104936 1.34855999 1.41517357 2.73718893 2.01962169 4.1602202 3.60738365 6.6571623 10.47062365 10.56412082 17.70005527 10.07590902 7.15020187-.62743884 13.68737693-4.52583775 17.90428668-10.67709692 3.97116625-5.60307113 6.14963459-12.62494567 10.96041884-17.41040127 3.36019693-2.7812803 6.89304626-5.32001007 10.5746484-7.59901492 5.74117178-4.3285528 10.21157036-11.2782848 9.87118468-18.73301464-.3176933-6.20425901-5.24193945-12.96161089-.68077136-18.46849196 1.70047887-1.77910513 3.58885055-3.34451375 5.62770988-4.66521802 2.05176184-1.3351921 3.72858945-3.228406 4.85616901-5.48283355 2.26923786-5.19426336-1.02115703-11.75923511 1.5884665-16.8332609 1.92885218-3.63117485 6.2404041-4.97783572 9.07695142-7.98377517 3.09329617-3.68584786 3.8327298-8.96328551 1.88346742-13.4425612-2.01579593-4.3978971-5.79002194-7.60288594-10.27964748-8.72924816-3.28895957-.7243858-6.65718712-.9591063-10.00733894-.69737795l-5.7184794.19238013c-1.05581771-.07664167-2.11656505-.00385869-3.15424062.21642764z"/>
    <path fill="rgb(86,80,86)" fill-rule="evenodd" d="M266.9644693 544.11199623c-1.18724585-.33672753-2.45358321.03093278-3.31308726.96190063-.9530799 1.49094596.27230854 3.82355497-.83961801 5.17021584-.71477286.60884711-1.63113477.88629995-2.5415464.7695205h-6.37655837c-1.69711353.07321338-3.39633916-.07213456-5.06040042-.43285528-.38385392-.15123441-.7949532-.20877298-1.20269606-.1683326-.56678276.19352883-.97477948.71988178-1.04384942 1.34666087-.06619085.6061176.01992077 1.2200082.24961617 1.77951615.40931266 1.228563.9990024 2.3809846 1.74731315 3.4147472.19900607.30866412.46317828.5639108.77154087.745473.36134807.14751042.7478786.21304854 1.13461893.19238012 3.74424246 0 7.48848492.14428509 11.34618927-.16833261 2.58693116-.21642764 5.17386231-.6011879 7.78348585-.81761553 3.75762403-.0061569 7.4869163-.68921812 11.02849597-2.01999131.9304167-.336874 1.68671046-1.0686399 2.08769883-2.0199913.19692043-.8331422.03030689-1.7159588-.45384757-2.40475157-.50348948-.69804738-1.13681414-1.27916104-1.86077504-1.7073736-2.04381315-1.39639873-4.28991565-2.42810451-6.64886692-3.05403448-2.23157103-.6964855-4.50635226-1.22682321-6.80771356-1.58713603z"/>
    <path fill="rgb(255,255,255)" fill-rule="evenodd" d="M513.5375185 281.75360133h157.60324142c5.03346502 0 9.12 4.08653498 9.12 9.12v134.22124874c0 5.03346502-4.08653498 9.12-9.12 9.12H513.5375185c-5.03346503 0-9.12-4.08653498-9.12-9.12V290.87360133c0-5.03346502 4.08653497-9.12 9.12-9.12z"/>
    <path fill="rgb(211,195,251)" fill-rule="evenodd" d="M203.11271287 50.9936419H367.0559543c3.2838944 0 5.95 2.6661056 5.95 5.95v140.56124873c0 3.2838944-2.6661056 5.95-5.95 5.95H203.11271287c-3.2838944 0-5.95-2.6661056-5.95-5.95V56.94364189c0-3.2838944 2.6661056-5.95 5.95-5.95z"/>
    <rect width="128.938" height="8.585" x="220.218" y="82.568" fill="url(#linearGradient-36)" rx="0" ry="0"/>
    <rect width="80.286" height="8.585" x="220.218" y="108.299" fill="url(#linearGradient-38)" rx="0" ry="0"/>
    <rect width="128.938" height="8.585" x="220.218" y="134.03" fill="url(#linearGradient-40)" rx="0" ry="0"/>
    <rect width="80.286" height="8.585" x="523.716" y="355.952" fill="url(#linearGradient-42)" rx="0" ry="0"/>
    <rect width="128.938" height="8.585" x="523.716" y="381.682" fill="url(#linearGradient-44)" rx="0" ry="0"/>
    <rect width="80.286" height="8.585" x="220.218" y="159.761" fill="url(#linearGradient-46)" rx="0" ry="0"/>
    <path fill="rgb(210,145,118)" fill-rule="evenodd" d="M353.35435446 296.2061582v-.38476026c.02276743-1.50409572.54502592-2.9515714 1.4750046-4.08807764.98679956-1.1330751 2.58954655-1.37427642 3.83501198-.57714038.49923233.36071274.83961801.9138056 1.3842351 1.17832826.54461708.26452268 1.72462077 0 2.26923785.72142547.54461709.72142547.4311552 1.25047081.70346374 1.87570622.27230854.6252354 1.06654179 1.15428074 1.5884665 1.75546863 2.56423877 2.9337969-.27230855 8.1761553-1.29346558 11.15804723-1.54308174 4.4728379-3.01808635 8.9697233-4.31155193 13.53875127-1.50560861.24085043-3.04361016-.07323476-4.35693668-.88975808-.48370867-.3035225-.91374559-.69413771-1.2707732-1.15428075-.83922772-1.60047648-1.01978332-3.49646175-.49923233-5.2423584.31666072-1.3188015.40887349-2.68687457.27230855-4.0399826-.3614699-1.4658124-.81636187-2.90394935-1.36154272-4.3045053-.38577043-1.17832826-.70346373-2.66927422.18153903-3.51093727.29500092-.28857019.72615611-.4569028.97577228-.79356801.21451022-.35036735.32515572-.76075282.3176933-1.17832827.13615427-1.44285093.02269238-2.69332174.09076951-4.06403013z"/>
  </g>
</svg>
